<svg version="1.2" xmlns="http://www.w3.org/2000/svg" viewBox="0 0 59 48" width="100" height="81">
	<defs>
		<clipPath clipPathUnits="userSpaceOnUse" id="cp1">
			<path d="m0 47.85h224.68v-47.85h-224.68z"/>
		</clipPath>
		<clipPath clipPathUnits="userSpaceOnUse" id="cp2">
			<path d="m0 47.85h224.68v-47.85h-224.68z"/>
		</clipPath>
	</defs>
	<style>
		.s0 { fill: #000000 } 
		.s1 { fill: #ab162b } 
	</style>
	<g>
		<path fill-rule="evenodd" class="s0" d="m79.98 13.45q0-1.65 0.64-3.19 0.16-0.38 0.35-0.74 0.19-0.36 0.42-0.7 0.23-0.34 0.49-0.65 0.26-0.32 0.56-0.61 0.58-0.57 1.26-1.03 0.69-0.45 1.45-0.77 0.76-0.31 1.56-0.47 0.81-0.16 1.63-0.16 0.41 0 0.82 0.04 0.41 0.04 0.82 0.12 0.4 0.08 0.8 0.2 0.39 0.12 0.77 0.27 0.38 0.16 0.74 0.35 0.37 0.19 0.71 0.42 0.34 0.22 0.66 0.48 0.32 0.26 0.6 0.55 0.3 0.29 0.56 0.61 0.26 0.32 0.49 0.66 0.23 0.34 0.43 0.7 0.19 0.36 0.35 0.74 0.64 1.51 0.63 3.18 0.01 0.82-0.15 1.62-0.17 0.8-0.48 1.56-0.32 0.76-0.78 1.44-0.46 0.67-1.05 1.25-0.58 0.58-1.27 1.04-0.68 0.45-1.44 0.77-0.77 0.31-1.58 0.47-0.81 0.16-1.63 0.16-0.41 0-0.82-0.04-0.41-0.04-0.81-0.12-0.4-0.08-0.79-0.2-0.4-0.11-0.78-0.27-0.38-0.16-0.74-0.35-0.36-0.19-0.7-0.42-0.34-0.23-0.66-0.49-0.31-0.26-0.6-0.55-0.29-0.29-0.56-0.61-0.26-0.31-0.49-0.65-0.22-0.34-0.42-0.7-0.19-0.37-0.35-0.74-0.16-0.38-0.28-0.77-0.12-0.39-0.2-0.79-0.08-0.4-0.12-0.8-0.04-0.41-0.04-0.81zm2.88-0.02q0 1.1 0.43 2.14 0.1 0.26 0.23 0.5 0.12 0.25 0.27 0.48 0.15 0.23 0.33 0.44 0.17 0.21 0.36 0.41 0.19 0.19 0.4 0.37 0.21 0.17 0.43 0.33 0.23 0.15 0.47 0.28 0.23 0.14 0.48 0.24 0.25 0.11 0.5 0.19 0.26 0.08 0.52 0.14 0.26 0.05 0.53 0.08 0.26 0.03 0.53 0.03 1.07 0 2.09-0.44 0.25-0.1 0.49-0.24 0.24-0.13 0.47-0.28 0.22-0.16 0.43-0.33 0.21-0.18 0.4-0.37 0.19-0.2 0.37-0.41 0.17-0.21 0.32-0.44 0.15-0.23 0.28-0.48 0.13-0.24 0.23-0.5 0.11-0.25 0.18-0.52 0.08-0.26 0.14-0.53 0.05-0.27 0.08-0.54 0.02-0.28 0.02-0.55 0-1.13-0.42-2.16-0.1-0.26-0.23-0.5-0.13-0.25-0.28-0.48-0.15-0.22-0.32-0.44-0.18-0.21-0.37-0.41-0.19-0.19-0.4-0.37-0.21-0.18-0.43-0.33-0.23-0.16-0.47-0.29-0.24-0.13-0.49-0.24-0.49-0.21-1.02-0.32-0.53-0.11-1.06-0.11-0.54 0-1.07 0.11-0.53 0.11-1.02 0.32-0.25 0.11-0.49 0.24-0.24 0.14-0.46 0.29-0.22 0.15-0.43 0.33-0.21 0.18-0.4 0.37-0.19 0.2-0.36 0.41-0.18 0.21-0.33 0.44-0.15 0.23-0.28 0.48-0.13 0.24-0.23 0.5-0.1 0.25-0.18 0.52-0.08 0.26-0.14 0.54-0.05 0.27-0.08 0.54-0.02 0.28-0.02 0.56z"/>
		<g id="Clip-Path" clip-path="url(#cp1)">
			<path fill-rule="evenodd" class="s0" d="m73.45 24.01h2.22v2.47h-2.22zm-3.7 0h2.22v2.47h-2.22zm-4.28 4.55h6.18v2.21h-1.8v7.76q0 1.95 0.67 2.8 0.67 0.85 2.19 0.85 1.52 0 2.18-0.84 0.66-0.84 0.66-2.81v-7.76h-1.8v-2.21h6.2v2.21h-1.56v8.1q0 2.82-1.49 4.39-1.49 1.57-4.19 1.57-2.72 0-4.2-1.57-1.48-1.57-1.48-4.44v-8.05h-1.56c0 0 0-2.21 0-2.21zm16.6 15.92v-2.26h1.54v-11.45h-1.54v-2.22h5.12l4.68 8.74q0.3 0.56 0.52 1.01 0.21 0.46 0.35 0.85-0.09-0.54-0.14-1.16-0.05-0.61-0.05-1.34v-5.88h-1.8v-2.21h5.82v2.21h-1.56v14.02h-2.21l-6.04-11.21q-0.06-0.12-0.12-0.24-0.07-0.11-0.13-0.23-0.06-0.12-0.12-0.24-0.06-0.11-0.11-0.23-0.06-0.12-0.11-0.23-0.05-0.11-0.09-0.23-0.05-0.11-0.1-0.23-0.04-0.11-0.08-0.23 0.08 0.48 0.13 1.09 0.04 0.6 0.04 1.41v8h1.78v2.26zm18.94-20.52h2.33v2.59h-2.33zm-2.14 20.52v-2.26h1.77v-11.45h-1.77v-2.21h6.37v2.21h-1.78v11.45h1.78v2.26c0 0-6.37 0-6.37 0zm14.25 0.36l-4.89-14.07h-1.29v-2.21h5.81v2.21h-1.64l2.48 7.23q0.19 0.53 0.31 1.04 0.13 0.52 0.2 1.01 0.07-0.45 0.18-0.95 0.03-0.13 0.06-0.26 0.03-0.14 0.06-0.27 0.04-0.13 0.07-0.26 0.04-0.13 0.08-0.27l2.13-7.27h-1.71v-2.21h5.82v2.21h-1.33l-4.34 14.07zm9.45-0.36v-2.26h1.54v-11.45h-1.54v-2.21h12.26v4.19h-2.38v-1.98h-5.54v4h1.97v-1.54h2.33v5.64h-2.33v-1.62h-1.97v4.97h5.54v-2.49h2.38v4.75zm19.36-2.25h1.75v2.25h-6.13v-2.25h1.54v-11.46h-1.54v-2.21h6.79q1.47 0 2.19 0.12 0.72 0.12 1.24 0.4 0.94 0.49 1.48 1.42 0.13 0.23 0.23 0.47 0.1 0.25 0.17 0.51 0.07 0.26 0.1 0.53 0.03 0.26 0.03 0.53 0 1.2-0.6 2.07-0.61 0.88-1.77 1.36v0.2q0.95 0.26 1.34 0.88 0.39 0.62 0.39 1.99v3.19h1.77v2.25h-4.52v-4.45q0-1.66-0.6-2.29-0.6-0.62-2.13-0.62h-1.73zm0-7.3h1.5q2 0 2.73-0.49 0.74-0.49 0.74-1.69 0-1.08-0.68-1.53-0.69-0.45-2.41-0.45h-1.88c0 0 0 4.16 0 4.16zm13.74 8.65v0.9h-2.21v-5.5h2.21v1.87q0.77 0.78 1.73 1.2 0.97 0.43 1.97 0.43 1.14 0 1.84-0.66 0.7-0.66 0.7-1.74 0-1.64-4.16-2.77-0.72-0.19-1.11-0.3-1.49-0.42-2.39-1.57-0.91-1.15-0.91-2.65 0-1.93 1.41-3.24 1.41-1.31 3.48-1.31 0.99 0 1.84 0.29 0.85 0.3 1.57 0.89v-0.86h2.15v4.7h-2.15v-1.67q-0.17-0.13-0.35-0.25-0.18-0.13-0.37-0.23-0.19-0.11-0.39-0.2-0.19-0.09-0.4-0.17-0.19-0.07-0.38-0.13-0.2-0.05-0.4-0.09-0.2-0.03-0.4-0.05-0.21-0.02-0.41-0.02-1.07 0-1.69 0.51-0.62 0.51-0.62 1.39 0 0.48 0.22 0.89 0.22 0.4 0.64 0.7 0.43 0.28 2.04 0.68 0.92 0.22 1.45 0.37 2.12 0.62 3.17 1.84 1.04 1.23 1.04 3.08 0 2.15-1.46 3.54-1.45 1.39-3.73 1.39-1.01 0-1.94-0.3-0.94-0.31-1.99-0.96zm13.43-19.62h2.33v2.59h-2.33zm-2.05 20.52v-2.25h1.78v-11.46h-1.78v-2.21h6.37v2.21h-1.77v11.46h1.77v2.25c0 0-6.37 0-6.37 0zm8.49-15.92h11.78v4.38h-2.51v-2.17h-1.98v11.46h1.76v2.25h-6.32v-2.25h1.75v-11.46h-1.98v2.17h-2.5zm13.95 15.92v-2.25h1.54v-11.45h-1.54v-2.22h12.26v4.19h-2.38v-1.97h-5.54v4h1.97v-1.54h2.33v5.63h-2.33v-1.62h-1.97v4.98h5.54v-2.5h2.38v4.75zm17.5-0.9v0.9h-2.21v-5.5h2.21v1.88q0.77 0.78 1.74 1.2 0.23 0.1 0.47 0.18 0.24 0.08 0.49 0.13 0.25 0.05 0.5 0.08 0.25 0.03 0.51 0.03 1.14 0 1.83-0.66 0.7-0.66 0.7-1.74 0-1.64-4.16-2.76-0.71-0.2-1.1-0.3-1.5-0.43-2.4-1.57-0.91-1.15-0.91-2.65 0-1.94 1.41-3.25 1.41-1.31 3.48-1.31 1 0 1.85 0.3 0.21 0.07 0.42 0.17 0.2 0.09 0.4 0.2 0.2 0.11 0.38 0.24 0.19 0.13 0.36 0.28v-0.87h2.16v4.7h-2.16v-1.66q-0.17-0.14-0.35-0.26-0.18-0.12-0.37-0.23-0.19-0.11-0.38-0.2-0.2-0.09-0.4-0.17-0.19-0.07-0.39-0.12-0.2-0.06-0.4-0.09-0.2-0.04-0.4-0.06-0.2-0.02-0.41-0.02-1.07 0-1.69 0.51-0.61 0.52-0.61 1.39 0 0.49 0.21 0.89 0.22 0.41 0.64 0.7 0.44 0.28 2.04 0.68 0.92 0.23 1.45 0.38 2.12 0.61 3.17 1.84 1.04 1.22 1.05 3.07 0 2.16-1.46 3.55-1.46 1.38-3.73 1.38-1.01 0-1.95-0.3-0.94-0.3-1.99-0.96zm13.35-19.62h2.33v2.59h-2.33c0 0 0-2.59 0-2.59zm-2.05 20.52v-2.25h1.78v-11.45h-1.78v-2.22h6.37v2.22h-1.78v11.45h1.78v2.26c0 0-6.37 0-6.37-0.01zm-138.17-25.32v2.26h-6.7v-2.26h1.79l-3.89-4.45-1.47-1.69-0.01 0.23v5.91h1.63v2.26h-5.99v-2.26h1.54v-11.46h-1.54v-2.21h6.18v2.21h-1.8v5.06l1.62-1.56 3.63-3.5h-1.63v-2.21h6.35v2.22h-1.23l-5.53 5.32 5.35 6.13zm33.45-3.1q-0.77 2.78-2.65 4.24-1.53 1.18-3.66 1.4v2.68h-2.3v-2.73q-0.77-0.12-1.51-0.39-0.32-0.12-0.63-0.26-0.31-0.15-0.61-0.32-0.3-0.18-0.57-0.38-0.28-0.2-0.54-0.43-0.34-0.29-0.63-0.62-0.3-0.32-0.56-0.68-0.26-0.36-0.48-0.75-0.22-0.38-0.39-0.79-0.69-1.64-0.7-3.63 0-0.43 0.04-0.85 0.05-0.42 0.13-0.84 0.08-0.41 0.2-0.82 0.13-0.41 0.29-0.8 0.16-0.38 0.36-0.75 0.19-0.37 0.43-0.71 0.23-0.35 0.49-0.67 0.27-0.32 0.57-0.61 0.27-0.26 0.56-0.5 0.3-0.23 0.61-0.44 0.32-0.2 0.66-0.37 0.33-0.17 0.68-0.31 1.41-0.56 3.06-0.56 0.28 0 0.57 0.02 0.28 0.02 0.56 0.06 0.28 0.04 0.56 0.1 0.28 0.06 0.55 0.14 0.27 0.09 0.52 0.19 0.25 0.1 0.5 0.23 0.24 0.12 0.47 0.26 0.24 0.15 0.46 0.31v-0.99h2.2v5.19h-2.2v-1.64q-0.22-0.17-0.45-0.32-0.24-0.15-0.48-0.28-0.25-0.14-0.5-0.25-0.25-0.11-0.52-0.2-1.03-0.35-2.18-0.35-2.34 0-3.81 1.6-1.46 1.6-1.47 4.18 0.01 2.49 1.49 4.13 1.49 1.63 3.73 1.63 1.56 0 2.7-0.8 1.14-0.8 1.76-2.32c0 0 2.69 0 2.69 0z"/>
		</g>
		<g id="Clip-Path" clip-path="url(#cp2)">
			<path fill-rule="evenodd" class="s1" d="m24.39 34.77l3.55 11.41q0.52-0.24 1.01-0.52 0.5-0.28 0.97-0.59 0.48-0.32 0.92-0.67 0.45-0.35 0.87-0.74l-6.61-9.34q-0.08 0.07-0.17 0.12-0.09 0.06-0.18 0.12-0.08 0.05-0.17 0.11-0.09 0.05-0.19 0.1zm-1.87 0.65l-0.18 12.3q0.59-0.07 1.18-0.17 0.58-0.1 1.15-0.24 0.58-0.14 1.14-0.31 0.57-0.18 1.12-0.39l-3.54-11.41q-0.11 0.04-0.22 0.07-0.1 0.03-0.21 0.06-0.11 0.02-0.22 0.05-0.11 0.02-0.22 0.04zm3.41-1.81l6.57 9.28q0.36-0.39 0.7-0.81 0.34-0.42 0.65-0.86 0.31-0.44 0.59-0.9 0.28-0.46 0.52-0.94l-8.52-6.35q-0.06 0.08-0.12 0.15-0.06 0.08-0.13 0.15-0.06 0.07-0.13 0.14-0.06 0.07-0.13 0.14zm-8.91-7.6l-1.19-0.89q-0.18 0.56-0.29 1.18l1.12 0.38q0.16-0.36 0.36-0.67zm3.48 9.46l-4.02 12q1.68 0.35 3.41 0.38 0.69 0 1.36-0.04l0.17-12.3q-0.11 0-0.23 0-0.11 0-0.23-0.01-0.12 0-0.23-0.01-0.12-0.01-0.23-0.02zm-5.11-8.07q-0.03 0.3-0.04 0.61-0.01 0.28 0.03 0.54h0.79q0.04-0.44 0.14-0.84zm-0.76 4.6l-12.59 3.97q0.3 0.62 0.63 1.22 0.33 0.6 0.71 1.17 0.37 0.58 0.78 1.13 0.4 0.55 0.85 1.08l10.46-7.45q-0.12-0.13-0.23-0.27-0.12-0.13-0.22-0.27-0.1-0.14-0.2-0.29-0.1-0.14-0.19-0.29zm3.73 3l-7.64 10.31q0.55 0.31 1.12 0.59 0.57 0.27 1.16 0.51 0.59 0.25 1.2 0.45 0.6 0.2 1.21 0.36l4-11.92q-0.14-0.03-0.27-0.06-0.13-0.04-0.26-0.07-0.13-0.04-0.26-0.09-0.13-0.04-0.26-0.08zm-4.68-8.18l-13.35-4.53q-0.26 1.8-0.32 3.73-0.04 1.28 0.06 2.53h13.56q-0.01-0.22-0.01-0.43 0-0.22 0-0.44 0.01-0.21 0.02-0.43 0.02-0.22 0.04-0.43zm2.61 7.05l-10.56 7.51q0.45 0.49 0.93 0.94 0.48 0.45 0.99 0.87 0.51 0.42 1.04 0.81 0.53 0.39 1.09 0.74l7.56-10.2q-0.14-0.07-0.27-0.15-0.14-0.08-0.27-0.16-0.13-0.09-0.26-0.18-0.13-0.09-0.25-0.18zm2.06-14.9l-4.92-15.84q-0.82 0.44-1.61 0.94-0.79 0.5-1.53 1.05-0.75 0.55-1.45 1.16-0.71 0.61-1.36 1.27l9.1 12.86q0.2-0.2 0.41-0.4 0.21-0.19 0.43-0.37 0.22-0.18 0.46-0.35 0.23-0.16 0.47-0.32zm9.04 7.87l7.85-2.47q-0.22-0.35-0.46-0.68-0.23-0.34-0.49-0.65-0.26-0.32-0.55-0.61-0.28-0.3-0.58-0.58l-6.1 4.35q0.19 0.32 0.33 0.64zm-0.35 5.28l8.39 6.26q0.77-1.75 1.18-3.78l-9.25-3.14q-0.04 0.09-0.07 0.17-0.04 0.09-0.08 0.17-0.04 0.08-0.08 0.16-0.05 0.09-0.09 0.16zm0.66-1.69l9.1 3.08q0.14-0.98 0.21-2.02 0.01-0.23 0.01-0.46 0.01-0.24 0-0.47 0-0.23-0.02-0.46-0.01-0.24-0.03-0.47h-9.13q-0.05 0.41-0.14 0.8zm-9.46-5.79l-1.3-1.84q-0.11 0.15-0.2 0.3-0.1 0.16-0.19 0.32-0.08 0.16-0.17 0.32-0.08 0.16-0.15 0.33l1.46 1.08q0.26-0.28 0.55-0.51zm8.19 0.67l5.87-4.18q-0.3-0.22-0.61-0.42-0.31-0.21-0.63-0.39-0.33-0.19-0.66-0.35-0.33-0.16-0.68-0.31l-3.8 5.13q0.28 0.25 0.51 0.52zm-4.86-1.98h0.03l0.05-3.93q-0.92 0.29-1.79 0.77l1 3.23q0.09-0.01 0.18-0.03 0.09-0.01 0.17-0.02 0.09-0.01 0.18-0.01 0.09-0.01 0.18-0.01zm-1.75 0.39l-0.91-2.95q-0.18 0.13-0.34 0.26-0.17 0.13-0.33 0.28-0.16 0.14-0.31 0.29-0.15 0.15-0.29 0.31l1.51 2.12q0.34-0.18 0.67-0.31zm5.22 0.44l3.61-4.88q-0.31-0.09-0.63-0.17-0.32-0.07-0.65-0.13-0.32-0.06-0.65-0.09-0.32-0.04-0.65-0.06l-1.68 5.01q0.35 0.14 0.65 0.32zm-1.68-0.65l1.56-4.68h-0.08q-1.01 0.04-2.1 0.27l-0.06 4.29q0.35 0.04 0.68 0.12zm-9.6 6.12h-13.58q0.09 0.69 0.23 1.37 0.13 0.68 0.31 1.35 0.18 0.67 0.4 1.32 0.22 0.66 0.48 1.3l12.55-3.96q-0.06-0.16-0.12-0.33-0.06-0.17-0.11-0.35-0.05-0.17-0.09-0.35-0.04-0.17-0.07-0.35zm24.9-1.08h18.82c-0.07-2.95-0.74-6.2-2.03-9.41l-17.96 5.66q0.21 0.44 0.39 0.9 0.18 0.46 0.33 0.93 0.15 0.47 0.26 0.95 0.11 0.48 0.19 0.97zm-24.33-4.55l-11.97-8.92q-0.32 0.74-0.59 1.49-0.28 0.75-0.52 1.52-0.23 0.77-0.42 1.55-0.18 0.78-0.33 1.57l13.34 4.52q0.05-0.22 0.1-0.44 0.05-0.22 0.11-0.43 0.06-0.22 0.13-0.43 0.07-0.21 0.15-0.43zm11.19-6.96l5.59-16.71q-0.62-0.08-1.24-0.14-0.62-0.07-1.24-0.11-0.63-0.04-1.25-0.06-0.62-0.02-1.25-0.02-1.57 0-3.12 0.18l-0.24 17.11q1.27-0.23 2.75-0.25zm11.45 6.78l18.05-5.69q-0.49-1.11-1.07-2.17-0.58-1.07-1.24-2.09-0.66-1.01-1.39-1.98-0.74-0.96-1.55-1.86l-15.15 10.78q1.37 1.33 2.35 3.01zm-3.17-3.75l15.22-10.85q-0.81-0.83-1.69-1.61-0.87-0.77-1.8-1.47-0.93-0.7-1.92-1.33-0.98-0.62-2.01-1.17l-10.78 14.54q0.4 0.19 0.79 0.4 0.39 0.21 0.76 0.45 0.37 0.23 0.73 0.49 0.36 0.26 0.7 0.55zm-12.12-2.54l0.24-17.21q-0.98 0.15-1.94 0.37-0.96 0.22-1.9 0.51-0.94 0.29-1.86 0.65-0.92 0.36-1.81 0.78l4.9 15.79q1.07-0.55 2.37-0.89zm8.11 0.23l10.82-14.61c-2.51-1.22-5.31-2.13-8.4-2.65l-5.55 16.57q1.6 0.13 3.13 0.68zm-2.06 10.12q0.09 0.37 0.12 0.68h8.97q-0.07-0.42-0.18-0.83-0.1-0.41-0.23-0.81-0.13-0.41-0.29-0.8-0.16-0.39-0.35-0.77zm-11.89-6.61l-9.13-12.9q-0.58 0.64-1.12 1.32-0.53 0.68-1.02 1.4-0.49 0.72-0.92 1.47-0.44 0.75-0.82 1.53l11.94 8.9q0.44-0.9 1.07-1.72z"/>
		</g>
	</g>
</svg>